<svg id="Layer_2" data-name="Layer 2" xmlns="http://www.w3.org/2000/svg" viewBox="0 0 612 792"><defs><style>.cls-1{fill:#324da1;}.cls-1,.cls-2{stroke:#fff;stroke-miterlimit:10;}.cls-2{fill:#63cbe4;}</style></defs><title>Artboard 1</title><path id="outer_flame" class="cls-1" d="M249,20S528,195,479,427c1,6,42-14,33-105,32,69,139,237-136,463-131-20.77-119-15-119-15S-81,584,176,302C176,302,294,158,249,20Z"/><path id="inner_flame" class="cls-2" d="M383,766s179-130-11-259c7,21,9,47,9,47s-19,72-69,14c0-6-9-60,64-129,9.52-10,121-131-53-243,15,38,45,118-24,170-31,43-101,135-101,135s-88,152,65,258C246,753,34,642,92,433c21-45,79-127,79-127s21-71-48-99c4,25,25,64-21,115-40,68-146.54,241,1,336-38-16-88-48-88-56S49,760,266,778l113.93,4.71L387,783s216-45,211-268c-15,28-43,80-57,68C529,613,476,719,383,766Z"/></svg>