<?xml version="1.0" encoding="utf-8"?>
<!-- Svg Vector Icons : http://www.onlinewebfonts.com/icon -->
<!DOCTYPE svg PUBLIC "-//W3C//DTD SVG 1.1//EN" "http://www.w3.org/Graphics/SVG/1.1/DTD/svg11.dtd">
<svg version="1.1" xmlns="http://www.w3.org/2000/svg" xmlns:xlink="http://www.w3.org/1999/xlink" x="0px" y="0px" viewBox="0 0 1000 1000" enable-background="new 0 0 1000 1000" xml:space="preserve">
<metadata> Svg Vector Icons : http://www.onlinewebfonts.com/icon </metadata>
<g><g transform="translate(0.000000,511.000000) scale(0.100000,-0.100000)"><path d="M410.1,3974.5C301,3949.6,203.4,3869.2,149.8,3762L100,3660.6V353.1v-3307.5h3267.3h3269.2l405.8-405.8l407.7-407.7l1225,1225l1225,1225l-411.5,616.3L9077-83.3v1875.8c0,1651.8-3.8,1885.4-28.7,1948.5c-38.3,90-95.7,149.3-191.4,201l-76.6,42.1l-4153.5,3.8C2341.4,3987.9,444.5,3984.1,410.1,3974.5z M796.7,3538.1c-122.5-99.5-101.4-292.9,38.3-348.4c26.8-11.5-23-17.2-145.5-17.2l-187.6-1.9v201v201h168.4C831.2,3572.5,835,3570.6,796.7,3538.1z M1409.2,3538.1c-122.5-99.5-101.4-292.9,38.3-348.4c24.9-11.5-55.5-17.2-218.2-17.2c-248.8,0-256.5,0-206.7,30.6c107.2,67,126.3,223.9,36.4,313.9l-55.5,55.5h222C1439.8,3572.5,1447.5,3570.6,1409.2,3538.1z M2021.7,3538.1c-105.3-84.2-112.9-208.6-19.1-302.4l65.1-65.1h-241.2c-233.5,1.9-241.2,1.9-191.4,32.5c107.2,67,126.3,223.9,36.4,313.9l-55.5,55.5h222C2052.3,3572.5,2060,3570.6,2021.7,3538.1z M8675,3371.6v-201H5436.4c-3026.1,1.9-3236.7,3.8-3188.8,32.5c107.2,67,126.3,223.9,36.4,313.9l-55.5,55.5h3223.3H8675V3371.6z M8675,1333.1V-102.5H7243.3H5809.6l-403.9-606.8L5000-1317.9l602.9-602.9c331.1-331.1,602.9-608.7,602.9-618.2c0-7.7-1280.5-11.5-2848.1-9.6l-2846.2,5.7L505.8,88.9c-1.9,1447,0,2643.3,5.7,2656.7c5.7,17.2,842.2,23,4086.5,23h4077V1333.1z M6770.5-695.8c-105.3-105.3-199.1-191.4-210.5-191.4c-9.6,1.9-49.8,42.1-88,91.9c-38.3,49.7-107.2,135.9-151.2,191.4l-80.4,99.5h359.8h361.8L6770.5-695.8z M8579.3-603.9c-44-55.5-112.9-141.7-151.2-191.4c-38.3-49.8-78.5-90-88-91.9c-11.5,0-105.3,86.1-210.5,191.4l-191.4,191.4h361.8h359.8L8579.3-603.9z M7718-858.5l258.4-258.4H7450h-526.4L7182-858.5c141.7,141.6,262.2,258.4,268,258.4S7576.3-716.9,7718-858.5z M6056.6-921.7l145.5-185.7l-141.6-5.7c-78.5-3.8-206.7-3.8-285.2,0l-143.6,5.7l124.4,187.6c68.9,101.5,132.1,185.7,139.7,185.7C5903.4-736,5974.3-820.2,6056.6-921.7z M9143.9-919.8l124.4-187.6l-143.6-5.7c-78.5-3.8-206.7-3.8-285.2,0l-141.6,5.7l145.5,185.7c82.3,101.4,153.1,185.6,160.8,187.6C9011.9-734.1,9075-818.3,9143.9-919.8z M6722.7-2102.7c126.3-313.9,225.9-574.2,223.9-578c-3.8-1.9-268,258.4-587.6,580l-583.8,581.9l359.8-3.8l359.8-5.7L6722.7-2102.7z M7947.7-1541.8c0-26.8-476.6-1221.2-497.7-1244.1c-9.6-11.5-281.4,652.7-482.3,1177.1l-34.5,90h507.2C7830.9-1518.9,7947.7-1524.6,7947.7-1541.8z M9115.2-1524.6c0-1.9-268-271.8-595.3-597.2c-585.7-585.7-593.4-591.5-553.2-488.1c23,57.4,122.5,308.2,223.9,555.1c99.5,246.9,189.5,468.9,199.1,493.8c15.3,42.1,21.1,42.1,371.3,42.1C8956.4-1518.9,9115.2-1520.8,9115.2-1524.6z"/><path d="M978.6,2292c-91.9-93.8-65.1-271.8,49.8-323.5c38.3-17.2,792.4-23,3169.7-23h3121.8l65.1,65.1c93.8,93.8,86.1,218.2-19.1,302.4c-38.3,30.6-233.5,34.4-3185,34.4H1034.1L978.6,2292z"/><path d="M1045.5,1524.5c-109.1-44-158.9-208.6-91.9-304.3c70.8-99.5,34.5-97.6,1808.8-97.6c1827.9,0,1743.7-5.7,1805,124.4c17.2,34.4,30.6,72.7,30.6,86.1s-13.4,51.7-30.6,86.1c-61.2,130.2,24.9,124.4-1820.3,122.5C1834.1,1541.7,1066.6,1534.1,1045.5,1524.5z"/><path d="M1020.7,693.8c-111-61.3-132.1-227.8-42.1-319.7l55.5-55.5h2325.6c2281.6,0,2325.6,0,2371.5,38.3c114.8,90,109.1,254.6-11.5,327.3c-57.4,34.4-124.4,36.4-2356.2,36.4C1493.4,718.7,1058.9,714.8,1020.7,693.8z"/><path d="M978.6-158c-91.9-93.8-65.1-271.8,49.8-323.5c36.4-17.2,421.1-23,1523.6-23c1341.8,0,1479.6,3.8,1529.3,32.5c111,65.1,130.2,222,40.2,313.9l-55.5,55.5H2550H1034.1L978.6-158z"/><path d="M1045.5-925.5c-126.3-51.7-160.8-223.9-67-329.2l55.5-63.2l1663.3-5.7c913-1.9,1688.2,0,1720.7,5.7c74.6,13.4,155,90,170.4,162.7c17.2,78.5-36.4,181.8-114.8,218.2c-55.5,26.8-248.8,30.6-1726.5,28.7C1834.1-908.3,1066.6-915.9,1045.5-925.5z"/><path d="M1020.7-1756.2c-111-61.3-132.1-227.8-42.1-319.7l55.5-55.5h903.4h903.4l55.5,55.5c91.9,93.8,65.1,271.8-49.8,323.5C2772-1717.9,1083.8-1721.8,1020.7-1756.2z"/></g></g>
</svg>