<?xml version="1.0" encoding="utf-8"?>
<!-- Generator: Adobe Illustrator 21.1.0, SVG Export Plug-In . SVG Version: 6.00 Build 0)  -->
<svg version="1.1" xmlns="http://www.w3.org/2000/svg" xmlns:xlink="http://www.w3.org/1999/xlink" x="0px" y="0px"
	 viewBox="0 0 400 400" style="enable-background:new 0 0 400 400;" xml:space="preserve">
<style type="text/css">
	.st0{fill:#86BE40;}
	.st1{fill:none;}
	.st2{display:none;}
	.st3{display:inline;fill:#FFFFFF;}
	.st4{font-family:'Sifonn-Basic-Outline';}
	.st5{font-size:42.8414px;}
	.st6{fill:#FFFFFF;}
	.st7{font-family:'Montserrat-Bold';}
	.st8{font-size:11.1471px;}
</style>
<g id="Layer_2">
</g>
<g id="Layer_3">
</g>
<g id="Layer_1">
	<rect x="-19" y="-19.2" class="st0" width="435.9" height="438.4"/>
	<rect x="82.5" y="-53.6" class="st1" width="408.8" height="186.6"/>
	<text transform="matrix(1 0 0 1 82.5402 -21.0247)" class="st2"><tspan x="0" y="0" class="st3 st4 st5">THE INTERAC</tspan><tspan x="301.1" y="0" class="st3 st4 st5">-</tspan><tspan x="0" y="51.4" class="st3 st4 st5">TION </tspan><tspan x="0" y="102.8" class="st3 st4 st5">COLLECTIVE</tspan></text>
	<rect x="82.5" y="-88.7" class="st1" width="408.8" height="186.6"/>
	<text transform="matrix(1 0 0 1 82.5402 -56.1404)" class="st2"><tspan x="0" y="0" class="st3 st4 st5">THE </tspan><tspan x="0" y="51.4" class="st3 st4 st5">INTERACTION </tspan><tspan x="0" y="102.8" class="st3 st4 st5">COLLECTIVE</tspan></text>
	<g>
		<path class="st6" d="M54.2,179.9h-8.6v-35.9h8.6V179.9z M47,178.6h5.8v-33.1H47V178.6z"/>
		<path class="st6" d="M93,181.3l-24.5-20.4v19h-8.6v-37.4l24.5,20.6v-19.1H93V181.3z M61.3,178.6H67V158l24.5,20.4v-32.9h-5.8v20.7
			l-24.5-20.6V178.6z"/>
		<path class="st6" d="M113.3,179.9h-8.6v-28h-8.5v-7.9h26.2v7.9h-9.1V179.9z M106.1,178.6h5.8v-28h9.1v-5.1H97.6v5.1h8.5V178.6z"/>
		<path class="st6" d="M148.4,179.9h-22.8v-35.9h19.7v7.9h-11.2v5h13v7.8h-13v7.3h14.2V179.9z M127,178.6h20v-5.1h-14.2v-10h13v-5
			h-13v-7.8h11.2v-5.1H127V178.6z"/>
		<path class="st6" d="M190.1,191.5h-11.4L163.8,174h-2.6v6.7h-8.6v-36.6h12.7c4.1,0,7.9,1.5,10.7,4.2c2.8,2.7,4.3,6.2,4.3,10.1
			c0,3.2-0.7,6-2.2,8.3c-1.2,2-3,3.7-5.1,4.9L190.1,191.5z M179.3,190.1h7.6l-16.3-19.1l0.9-0.4c2.3-1.1,4.1-2.6,5.4-4.7
			c1.3-2.1,1.9-4.7,1.9-7.6c0-3.5-1.4-6.7-3.9-9.1c-2.5-2.5-6-3.8-9.7-3.8H154v33.9h5.8v-6.7h4.6L179.3,190.1z M159.8,167.5v-16.9h5
			c2.5,0,4.6,0.9,6.1,2.5c1.3,1.5,2,3.5,2,5.9c0,2.8-0.8,4.9-2.5,6.4c-1.7,1.5-4,2.2-7,2.2H159.8z M161.2,166.1h2.3
			c2.7,0,4.7-0.6,6.1-1.9c1.3-1.2,2-3,2-5.4c0-2-0.6-3.7-1.7-5c-1.2-1.3-2.9-2-5-2h-3.7V166.1z"/>
		<path class="st6" d="M218.4,179.9H209l-2.3-4.6h-15.9l-4.9,12.5l-3.2-3.5l-2.7-2.8l19-38.9L218.4,179.9z M199,145.6 M194.7,167.4
			h8.2l-4.2-8.5L194.7,167.4z"/>
		<path class="st6" d="M221.2,175.1c-1.7-1.7-3-3.7-3.9-5.9c-1-2.3-1.4-4.7-1.4-7.2c0-2.5,0.5-5,1.4-7.2c0.9-2.2,2.2-4.2,3.9-5.9
			c1.7-1.7,3.7-3.1,5.9-4c2.3-1,4.7-1.5,7.2-1.5c3.2,0,6.4,0.8,9.2,2.4c2.7,1.5,5,3.7,6.6,6.3l0.3,0.6l-6.7,4.8l-0.4-0.6
			c-1.2-1.7-2.6-3-4.2-3.9c-1.5-0.9-3.1-1.3-4.9-1.3c-2.6,0-5,1.1-6.9,3c-1.8,1.9-2.8,4.5-2.8,7.3c0,2.8,1,5.3,2.8,7.3
			c1.8,1.9,4.3,3,6.9,3c2.3,0,4.6-0.8,6.4-2.4c1.8-1.5,3-3.7,3.4-6l0.1-0.6h8.6l0,0.8c-0.5,4.4-2.7,8.6-6.1,11.7
			c-3.4,3.1-7.8,4.8-12.4,4.8C229.3,180.5,224.6,178.6,221.2,175.1z"/>
		<path class="st6" d="M269,179.9h-8.6v-28h-8.5v-7.9h26.2v7.9H269V179.9z"/>
		<path class="st6" d="M289.9,179.9h-8.6v-35.9h8.6V179.9z M288.5,145.5h-5.8H288.5z"/>
		<path class="st6" d="M305.5,179.1c-2.2-0.9-4.2-2.3-5.9-3.9c-1.7-1.7-3.1-3.7-4-5.9c-0.9-2.3-1.4-4.7-1.4-7.2
			c0-2.5,0.5-4.9,1.4-7.2c0.9-2.2,2.3-4.2,4-5.9c1.7-1.7,3.7-3,5.9-3.9c2.3-1,4.7-1.5,7.2-1.5c2.5,0,5,0.5,7.2,1.5
			c2.2,0.9,4.2,2.2,5.9,3.9c1.7,1.7,3,3.7,3.9,5.9c1,2.3,1.5,4.7,1.5,7.2c0,2.5-0.5,5-1.5,7.2c-0.9,2.2-2.2,4.2-3.9,5.9
			c-1.7,1.7-3.7,3-5.9,3.9c-2.3,1-4.7,1.5-7.2,1.5C310.2,180.5,307.7,180,305.5,179.1z M305.7,154.7c-1.8,1.9-2.8,4.5-2.8,7.3
			c0,2.8,1,5.4,2.8,7.3c1.9,1.9,4.3,3,7,3c2.6,0,5.1-1.1,6.9-3c1.9-1.9,2.9-4.5,2.9-7.3c0-2.7-1-5.3-2.9-7.3c-1.9-1.9-4.3-3-6.9-3
			S307.5,152.8,305.7,154.7z"/>
		<path class="st6" d="M368.5,181.3L344,160.9v19h-8.6v-37.4l24.5,20.6v-19.1h8.6V181.3z M367.1,178.4l-30.3-32.8"/>
		<path class="st6" d="M49.6,229.1c-1.7-1.7-3-3.7-3.9-5.9c-1-2.3-1.4-4.7-1.4-7.2c0-2.5,0.5-5,1.4-7.2c0.9-2.2,2.2-4.2,3.9-5.9
			c1.7-1.7,3.7-3.1,5.9-4c2.3-1,4.7-1.5,7.2-1.5c3.2,0,6.4,0.8,9.2,2.4c2.7,1.5,5,3.7,6.6,6.3l0.3,0.6l-6.7,4.8l-0.4-0.6
			c-1.2-1.7-2.6-3-4.2-3.9c-1.5-0.9-3.1-1.3-4.9-1.3c-2.6,0-5,1.1-6.9,3c-1.8,1.9-2.8,4.5-2.8,7.3c0,2.8,1,5.3,2.8,7.3
			c1.8,1.9,4.3,3,6.9,3c2.3,0,4.6-0.8,6.4-2.4c1.8-1.5,3-3.7,3.4-6l0.1-0.6h8.6l0,0.8c-0.5,4.4-2.7,8.6-6.1,11.7
			c-3.4,3.1-7.8,4.8-12.4,4.8C57.7,234.6,53.1,232.6,49.6,229.1z"/>
		<path class="st6" d="M95.2,233.1c-2.2-0.9-4.2-2.3-5.9-3.9c-1.7-1.7-3.1-3.7-4-5.9c-0.9-2.3-1.4-4.7-1.4-7.2
			c0-2.5,0.5-4.9,1.4-7.2c0.9-2.2,2.3-4.2,4-5.9c1.7-1.7,3.7-3,5.9-3.9c2.3-1,4.7-1.5,7.2-1.5c2.5,0,5,0.5,7.2,1.5
			c2.2,0.9,4.2,2.2,5.9,3.9c1.7,1.7,3,3.7,3.9,5.9c1,2.3,1.5,4.7,1.5,7.2c0,2.5-0.5,5-1.5,7.2c-0.9,2.2-2.2,4.2-3.9,5.9
			c-1.7,1.7-3.7,3-5.9,3.9c-2.3,1-4.7,1.5-7.2,1.5S97.5,234,95.2,233.1z M95.5,208.7c-1.8,1.9-2.8,4.5-2.8,7.3c0,2.8,1,5.4,2.8,7.3
			c1.9,1.9,4.3,3,7,3c2.6,0,5.1-1.1,6.9-3c1.9-1.9,2.9-4.5,2.9-7.3c0-2.7-1-5.3-2.9-7.3c-1.9-1.9-4.3-3-6.9-3S97.3,206.8,95.5,208.7
			z"/>
		<path class="st6" d="M147.6,234h-22.5v-35.9h8.6v28h13.9V234z M146.2,232.6v-5.1V232.6z"/>
		<path class="st6" d="M173.1,234h-22.5v-35.9h8.6v28h13.9V234z M171.8,232.6v-5.1V232.6z"/>
		<path class="st6" d="M199,234h-22.8v-35.9h19.7v7.9h-11.2v5h13v7.8h-13v7.3H199V234z M177.6,232.6h20"/>
		<path class="st6" d="M207.1,229.1c-1.7-1.7-3-3.7-3.9-5.9c-1-2.3-1.4-4.7-1.4-7.2c0-2.5,0.5-5,1.4-7.2c0.9-2.2,2.2-4.2,3.9-5.9
			c1.7-1.7,3.7-3.1,5.9-4c2.3-1,4.7-1.5,7.2-1.5c3.2,0,6.4,0.8,9.2,2.4c2.7,1.5,5,3.7,6.6,6.3l0.3,0.6l-6.7,4.8l-0.4-0.6
			c-1.2-1.7-2.6-3-4.2-3.9c-1.5-0.9-3.1-1.3-4.9-1.3c-2.6,0-5,1.1-6.9,3c-1.8,1.9-2.8,4.5-2.8,7.3c0,2.8,1,5.3,2.8,7.3
			c1.8,1.9,4.3,3,6.9,3c2.3,0,4.6-0.8,6.4-2.4c1.8-1.5,3-3.7,3.4-6l0.1-0.6h8.6l0,0.8c-0.5,4.4-2.7,8.6-6.1,11.7
			c-3.4,3.1-7.8,4.8-12.4,4.8C215.2,234.6,210.6,232.6,207.1,229.1z"/>
		<path class="st6" d="M255,234h-8.6v-28h-8.5v-7.9h26.2v7.9H255V234z M253.6,232.6"/>
		<path class="st6" d="M275.9,234h-8.6v-35.9h8.6V234z M268.7,232.6"/>
		<path class="st6" d="M297.1,235.3l-19.6-37.3h9.8l10,19.4l9.4-19.4h9L297.1,235.3z M313.5,199.5h-5.8H313.5z"/>
		<path class="st6" d="M339.5,234h-22.8v-35.9h19.7v7.9h-11.2v5h13v7.8h-13v7.3h14.2V234z M338.1,232.6v-5.1V232.6z"/>
	</g>
	<rect x="44.2" y="127" class="st1" width="54.4" height="15.6"/>
	<text transform="matrix(1 0 0 1 44.2165 135.2407)" class="st6 st7 st8">THE</text>
	<path class="st6" d="M185.9,127"/>
</g>
</svg>
