<svg xmlns="http://www.w3.org/2000/svg" viewBox="0 0 174.32 192.84"><defs><style>.cls-1,.cls-6{font-size:21.61px;font-family:Oswald-Regular, Oswald Regular;}.cls-1,.cls-2,.cls-5{fill:#4c391a;}.cls-3{fill:#50972f;}.cls-4{fill:#c33;}.cls-5{font-size:11.37px;font-family:Modern-Regular, Modern No. 20;letter-spacing:0.09em;}.cls-6{letter-spacing:0.09em;}</style></defs><title>work8</title><g id="logo_color" data-name="logo color"><text class="cls-1" transform="translate(26.49 33.82) rotate(-31.84)">C</text><text class="cls-1" transform="translate(37.14 27.33) rotate(-22.63)">R</text><text class="cls-1" transform="translate(48.74 22.58) rotate(-12.92)">U</text><text class="cls-1" transform="translate(61.41 19.78) rotate(-2.15)">N</text><text class="cls-1" transform="translate(74.16 19.65) rotate(6.74)">I</text><text class="cls-1" transform="translate(80.91 20.35) rotate(14.77)">C</text><text class="cls-1" transform="matrix(0.91, 0.41, -0.41, 0.91, 92.92, 23.66)">A</text><text class="cls-1" transform="translate(103.81 28.62) rotate(33.27)">N</text><g id="tree"><polyline id="tree-2" data-name="tree" class="cls-2" points="73.61 114.49 73.24 97.16 81.06 83.98 98.72 82.33 82.49 81.58 86.87 74.58 100.54 67.29 87.78 70.94 88.41 50.63 84.27 70.5 66.85 50.64 83.22 73.22 68.64 91.45 52.23 71.39 65.42 96.92 65.09 113.9"/><path id="tree-3" data-name="tree" class="cls-2" d="M151.49,163.35l1.2,43.91H142c-.56,0,1.06-44.14,1.06-44.14" transform="translate(-77.91 -49.7)"/><path id="leaf" class="cls-3" d="M99.8,124.34s7.11,6.27,13.38-.56C106.07,117.93,99.8,124.34,99.8,124.34Z" transform="translate(-77.91 -49.7)"/><path id="leaf-2" data-name="leaf" class="cls-3" d="M108.6,138.14s9.36-1.5,8.08-10.68C107.64,129.23,108.6,138.14,108.6,138.14Z" transform="translate(-77.91 -49.7)"/><path id="leaf-3" data-name="leaf" class="cls-3" d="M117.8,125.1s6.66,6.75,13.39.36C124.5,119.13,117.8,125.1,117.8,125.1Z" transform="translate(-77.91 -49.7)"/><path id="leaf-4" data-name="leaf" class="cls-3" d="M128.58,100.47s7.88,8.66,15.92.38C136.59,92.73,128.58,100.47,128.58,100.47Z" transform="translate(-77.91 -49.7)"/><path id="leaf-5" data-name="leaf" class="cls-3" d="M129.84,108.46s-3.92,8.63,4.45,12.63C137.81,112.58,129.84,108.46,129.84,108.46Z" transform="translate(-77.91 -49.7)"/><path id="leaf-6" data-name="leaf" class="cls-3" d="M156.27,94s-6.79,6.62-.45,13.38C162.19,100.77,156.27,94,156.27,94Z" transform="translate(-77.91 -49.7)"/><path id="leaf-7" data-name="leaf" class="cls-3" d="M158.21,85s-.71,9.45,8.52,10.33C167.11,86.17,158.21,85,158.21,85Z" transform="translate(-77.91 -49.7)"/><path id="leaf-8" data-name="leaf" class="cls-3" d="M178.81,84.83s.71,9.45-8.52,10.33C169.91,86,178.81,84.83,178.81,84.83Z" transform="translate(-77.91 -49.7)"/><path id="leaf-9" data-name="leaf" class="cls-3" d="M197.48,113.81s-6.56,6.84-13.38.56C190.7,107.95,197.48,113.81,197.48,113.81Z" transform="translate(-77.91 -49.7)"/><path id="leaf-10" data-name="leaf" class="cls-3" d="M199,126.51s-5.2,7.93-13.05,3C191.26,122,199,126.51,199,126.51Z" transform="translate(-77.91 -49.7)"/><path id="leaf-11" data-name="leaf" class="cls-3" d="M183.91,118.25s.88,10.51-9.39,11.53C174,119.56,183.91,118.25,183.91,118.25Z" transform="translate(-77.91 -49.7)"/><path id="leaf-12" data-name="leaf" class="cls-3" d="M176.36,132.71s2.58,10.23,12.62,7.86C186.14,130.73,176.36,132.71,176.36,132.71Z" transform="translate(-77.91 -49.7)"/><path id="leaf-13" data-name="leaf" class="cls-3" d="M122.75,87.54s8.41-3,11.11,5.37C125.61,95.51,122.75,87.54,122.75,87.54Z" transform="translate(-77.91 -49.7)"/><path id="leaf-14" data-name="leaf" class="cls-3" d="M135.14,79.93s-3,9.92,6.62,13.07C144.37,83.27,135.14,79.93,135.14,79.93Z" transform="translate(-77.91 -49.7)"/><path id="leaf-15" data-name="leaf" class="cls-3" d="M150,82.78s-8.56,5.64-2.85,13.94C155.27,91,150,82.78,150,82.78Z" transform="translate(-77.91 -49.7)"/><path id="leaf-16" data-name="leaf" class="cls-4" d="M126.69,135.67s.5-3.26-2.67-3.81A3.4,3.4,0,0,0,126.69,135.67Z" transform="translate(-77.91 -49.7)"/><path id="leaf-17" data-name="leaf" class="cls-4" d="M128.1,135.22s4,.61,4.7-3.32A4.21,4.21,0,0,0,128.1,135.22Z" transform="translate(-77.91 -49.7)"/><path id="apple" class="cls-4" d="M120.32,146.46a3.33,3.33,0,0,1,3,1.16c1,1.12,6.78.14,8.22-6.14,0,0,1.07-3.62-2.54-4.39a11.62,11.62,0,0,1-2.69-.41c-1.3-.58-1.48-1.46-2.43-1.82C116.62,131.76,115.69,145.94,120.32,146.46Z" transform="translate(-77.91 -49.7)"/><path id="leaf-18" data-name="leaf" class="cls-4" d="M166.57,142.18s-1.38-2.91-4.25-1.62A3.33,3.33,0,0,0,166.57,142.18Z" transform="translate(-77.91 -49.7)"/><path id="leaf-19" data-name="leaf" class="cls-4" d="M167.47,141s3.6-1.71,2-5.27A4.12,4.12,0,0,0,167.47,141Z" transform="translate(-77.91 -49.7)"/><path id="apple-2" data-name="apple" class="cls-4" d="M167.32,154.41a3.26,3.26,0,0,1,3.05-.69c1.46.34,5.57-3.59,3.3-9.47,0,0-1.11-3.52-4.46-2.17a11.36,11.36,0,0,1-2.41,1.14c-1.37.24-2-.37-3-.15C156.27,144.52,163.28,156.52,167.32,154.41Z" transform="translate(-77.91 -49.7)"/><path id="leaf-20" data-name="leaf" class="cls-4" d="M117.47,106.64s-.22-3.41-3.57-3.26A3.53,3.53,0,0,0,117.47,106.64Z" transform="translate(-77.91 -49.7)"/><path id="leaf-21" data-name="leaf" class="cls-4" d="M118.8,105.87s4.23-.29,4-4.43A4.37,4.37,0,0,0,118.8,105.87Z" transform="translate(-77.91 -49.7)"/><path id="apple-3" data-name="apple" class="cls-4" d="M113.43,119a3.46,3.46,0,0,1,3.29.51c1.3.91,6.91-1.38,7-8.07,0,0,.28-3.91-3.56-3.88a12.07,12.07,0,0,1-2.82.18c-1.45-.3-1.83-1.14-2.88-1.3C106.37,104.94,108.62,119.53,113.43,119Z" transform="translate(-77.91 -49.7)"/><path id="leaf-22" data-name="leaf" class="cls-4" d="M146.51,118s-.82-3.24-4-2.5A3.45,3.45,0,0,0,146.51,118Z" transform="translate(-77.91 -49.7)"/><path id="leaf-23" data-name="leaf" class="cls-4" d="M147.65,117s4-1,3.09-5A4.28,4.28,0,0,0,147.65,117Z" transform="translate(-77.91 -49.7)"/><path id="apple-4" data-name="apple" class="cls-4" d="M144.82,130.64a3.38,3.38,0,0,1,3.25-.09c1.41.64,6.4-2.55,5.26-9,0,0-.43-3.81-4.11-3.1a11.8,11.8,0,0,1-2.68.68c-1.45,0-2-.78-3-.74C135.54,118.34,140.28,132,144.82,130.64Z" transform="translate(-77.91 -49.7)"/><path id="leaf-24" data-name="leaf" class="cls-4" d="M177.71,99.84s-.8-3.17-3.91-2.44A3.37,3.37,0,0,0,177.71,99.84Z" transform="translate(-77.91 -49.7)"/><path id="leaf-25" data-name="leaf" class="cls-4" d="M178.82,98.89s3.91-1,3-4.85A4.17,4.17,0,0,0,178.82,98.89Z" transform="translate(-77.91 -49.7)"/><path id="apple-5" data-name="apple" class="cls-4" d="M176.06,112.16a3.3,3.3,0,0,1,3.17-.09c1.38.63,6.25-2.48,5.14-8.78,0,0-.42-3.72-4-3a11.52,11.52,0,0,1-2.61.66c-1.41,0-1.91-.76-2.92-.73C167,100.15,171.63,113.46,176.06,112.16Z" transform="translate(-77.91 -49.7)"/></g><text class="cls-1" transform="translate(15.53 167.7) rotate(38.46)">O</text><text class="cls-1" transform="translate(28.76 177.29) rotate(23.42)">R</text><text class="cls-1" transform="matrix(0.98, 0.21, -0.21, 0.98, 42.84, 182.9)">C</text><text class="cls-1" transform="translate(57.14 185.77) rotate(3.98)">H</text><text class="cls-1" transform="translate(72.77 186.72) rotate(-4.74)">A</text><text class="cls-1" transform="translate(87.27 185.2) rotate(-15.77)">R</text><text class="cls-1" transform="translate(102.04 180.56) rotate(-28.4)">D</text><text class="cls-1" transform="translate(115.45 172.72) rotate(-40.62)">S</text><text class="cls-5" transform="translate(41.4 127.77)">Est<tspan class="cls-6" x="18.48" y="0"> </tspan></text><text class="cls-5" transform="translate(77.51 127.03)">1908</text></g></svg>